<?xml version="1.0" standalone="no"?>
<!DOCTYPE svg PUBLIC "-//W3C//DTD SVG 20010904//EN"
 "http://www.w3.org/TR/2001/REC-SVG-20010904/DTD/svg10.dtd">
<svg version="1.0" xmlns="http://www.w3.org/2000/svg"
 width="512.000000pt" height="512.000000pt" viewBox="0 0 512.000000 512.000000"
 preserveAspectRatio="xMidYMid meet">
<metadata>
Created by potrace 1.11, written by Peter Selinger 2001-2013
</metadata>
<g transform="translate(0.000000,512.000000) scale(0.100000,-0.100000)"
fill="#000000" stroke="none">
<path d="M1185 5053 c-294 -37 -558 -164 -768 -370 -191 -187 -313 -419 -367
-698 -18 -96 -19 -158 -19 -1420 0 -726 4 -1342 9 -1370 5 -27 11 -66 15 -85
37 -211 155 -448 302 -611 210 -231 425 -351 763 -425 19 -5 652 -9 1405 -10
1312 -2 1375 -2 1479 17 379 67 704 293 900 627 79 136 124 259 157 437 17 95
18 171 16 1440 -2 737 -6 1351 -9 1365 -3 14 -9 41 -12 60 -34 178 -123 379
-235 528 -187 252 -490 442 -791 498 -19 3 -46 9 -60 12 -27 7 -2736 12 -2785
5z m2780 -155 c11 -3 50 -13 86 -22 376 -88 694 -380 819 -754 61 -183 60
-153 60 -1554 0 -851 -4 -1302 -11 -1353 -37 -267 -148 -489 -339 -675 -150
-146 -314 -239 -527 -298 l-98 -27 -1365 -2 c-1498 -2 -1437 -4 -1624 58 -103
34 -204 85 -292 146 -79 55 -204 171 -204 189 0 8 -4 14 -9 14 -13 0 -101 121
-101 139 0 9 -7 28 -14 43 -8 16 -11 28 -5 28 5 0 9 5 9 10 0 6 -10 8 -24 4
-21 -5 -26 1 -54 68 -73 175 -91 290 -89 553 l2 200 28 13 c21 10 32 11 40 3
6 -6 18 -11 26 -11 19 0 102 -40 119 -57 7 -7 20 -13 28 -13 7 0 30 -16 50
-35 19 -19 42 -35 50 -35 7 0 23 -19 35 -42 12 -24 27 -50 34 -58 7 -8 15 -41
19 -73 4 -45 2 -59 -9 -64 -8 -3 -15 -10 -15 -16 0 -5 9 -2 20 8 20 18 20 17
20 -8 0 -15 5 -27 12 -27 6 0 19 -6 27 -14 27 -23 74 -34 106 -24 74 23 106
26 112 11 5 -13 18 -14 69 -9 57 6 66 4 86 -16 50 -50 98 -56 143 -18 49 41
88 62 125 65 22 2 42 -1 45 -6 8 -12 45 -12 45 1 0 6 7 10 15 10 8 0 15 5 15
10 0 14 -16 12 -33 -4 -12 -12 -20 -13 -51 -2 -39 13 -86 10 -86 -5 0 -5 -5
-9 -11 -9 -7 0 -31 -16 -55 -35 -23 -19 -50 -35 -59 -35 -23 0 -56 19 -83 47
-21 23 -27 24 -87 18 -57 -6 -65 -5 -65 9 0 15 -7 16 -47 10 -27 -3 -52 -10
-57 -15 -26 -23 -139 7 -142 38 0 5 -6 26 -12 48 -7 22 -12 54 -12 72 0 18 -6
36 -12 40 -7 4 -25 31 -39 58 -15 28 -35 51 -45 53 -11 2 -33 19 -50 38 -17
19 -40 34 -51 34 -11 0 -28 9 -38 20 -10 11 -24 20 -32 20 -7 0 -25 8 -40 17
-36 23 -84 31 -120 19 l-23 -7 3 413 2 413 28 1 c15 1 35 8 45 17 12 11 22 13
32 7 8 -5 27 -10 42 -10 15 0 29 -4 33 -9 3 -6 17 -6 36 1 36 12 79 -2 79 -27
0 -8 11 -21 25 -27 14 -6 25 -15 25 -20 0 -5 4 -6 10 -3 5 3 22 -2 37 -12 21
-14 25 -15 19 -3 -5 8 8 -3 28 -25 19 -22 36 -45 36 -51 0 -6 18 -31 40 -56
26 -30 36 -48 29 -55 -15 -15 -21 -61 -9 -68 6 -4 10 -3 9 2 -3 18 2 49 10 62
7 11 13 10 35 -4 14 -10 26 -13 26 -9 0 11 67 35 95 35 11 0 24 -6 30 -14 5
-8 20 -17 33 -21 12 -4 22 -13 22 -20 0 -8 9 -20 21 -27 11 -8 22 -26 22 -41
2 -21 5 -24 18 -17 9 4 20 5 24 1 5 -4 5 -1 1 6 -13 22 4 13 35 -21 17 -17 28
-26 24 -19 -8 15 9 16 33 1 14 -9 25 -7 50 8 40 25 86 19 107 -13 8 -13 29
-31 45 -39 17 -9 28 -20 25 -25 -4 -6 -1 -10 4 -10 21 0 10 30 -16 47 -16 9
-40 29 -55 45 -16 16 -37 28 -52 28 -31 0 -31 0 -4 58 12 26 24 64 27 86 5 34
11 40 49 55 58 23 110 66 118 96 4 16 13 25 25 25 10 0 19 -1 19 -3 0 -1 9
-26 19 -55 11 -30 33 -63 51 -78 17 -15 29 -33 26 -40 -3 -8 -2 -14 3 -14 13
0 20 -53 9 -67 -26 -32 13 -148 61 -182 36 -26 39 -43 12 -76 -12 -16 -21 -21
-28 -14 -18 18 -107 37 -132 27 -19 -7 -29 -4 -48 14 -19 18 -26 19 -36 9 -10
-11 -9 -13 3 -9 8 3 23 -1 33 -10 16 -14 16 -16 -5 -26 -12 -6 -24 -18 -26
-26 -4 -12 -1 -12 14 2 11 9 39 21 64 27 37 8 46 7 56 -7 9 -12 15 -14 25 -5
11 9 21 6 44 -13 17 -13 24 -24 17 -24 -10 0 -10 -5 -1 -21 8 -15 8 -24 0 -32
-17 -17 -13 -31 4 -17 10 9 14 22 10 39 -4 21 4 36 45 79 29 30 59 52 71 52
14 0 24 10 32 30 8 21 16 28 27 24 8 -4 24 -9 36 -11 20 -5 18 -10 -30 -99
-27 -52 -55 -94 -61 -94 -23 1 -96 40 -90 50 3 5 1 10 -4 10 -20 0 -11 -18 18
-39 16 -12 36 -21 44 -21 22 0 31 -18 17 -35 -7 -8 -10 -15 -6 -15 3 0 -8 -23
-25 -52 -132 -224 -152 -336 -67 -388 32 -19 51 -20 871 -20 939 0 874 -5 917
73 14 23 24 64 27 101 3 33 6 62 8 64 1 1 14 -7 29 -19 28 -22 76 -33 76 -16
0 5 -9 7 -20 4 -11 -3 -32 5 -51 19 -18 13 -35 21 -39 19 -3 -2 -12 11 -18 29
-7 18 -26 45 -43 62 -29 28 -35 29 -152 35 -67 3 -132 9 -143 13 -12 4 -38 31
-58 60 -43 63 -76 92 -97 88 -8 -1 -24 6 -34 18 -10 11 -26 20 -35 20 -24 0
-38 20 -53 71 -8 28 -21 48 -34 54 -22 9 -36 52 -29 90 5 30 -19 69 -64 105
-29 23 -44 29 -53 22 -6 -6 -29 -10 -49 -10 -20 0 -41 -3 -47 -7 -6 -3 -11 0
-11 7 -1 9 -5 7 -14 -4 -10 -14 -23 -16 -65 -11 l-51 6 41 76 c23 42 58 105
77 141 19 36 39 68 45 71 5 3 8 9 8 13 -3 31 36 41 82 21 31 -13 106 1 148 30
23 14 58 32 78 40 20 7 56 31 80 54 23 22 48 41 56 41 7 0 27 3 44 6 22 5 31
3 31 -6 0 -7 11 -23 25 -36 14 -13 25 -19 25 -14 0 5 -8 15 -17 22 -10 7 -19
19 -21 26 -3 17 23 15 38 -3 7 -9 18 -14 25 -12 6 3 19 -1 30 -9 10 -8 35 -14
56 -14 40 0 66 -22 61 -52 -2 -10 2 -18 7 -18 6 0 11 -7 11 -16 0 -25 69 -105
99 -115 26 -10 48 -46 81 -140 10 -27 32 -60 57 -82 32 -29 42 -47 47 -81 7
-44 45 -94 64 -82 13 8 37 -22 37 -45 0 -19 28 -49 63 -68 12 -6 22 -21 22
-32 0 -11 4 -18 9 -15 15 9 0 46 -23 58 -23 12 -69 58 -64 64 14 13 55 -18 88
-66 33 -49 47 -60 89 -74 27 -9 57 -16 65 -16 52 0 95 -55 125 -160 7 -25 18
-54 24 -65 6 -11 17 -33 25 -48 8 -16 24 -32 37 -37 21 -8 40 -55 36 -87 -1
-6 13 -22 30 -36 18 -14 33 -33 34 -44 0 -10 5 -24 9 -31 4 -7 5 -16 2 -19 -7
-7 19 -56 39 -73 13 -11 13 -7 -3 21 -10 19 -25 60 -31 91 -10 48 -17 59 -37
64 -17 4 -24 13 -24 29 0 13 -5 27 -10 30 -6 4 -8 11 -5 16 4 5 22 -3 41 -17
27 -21 38 -24 47 -15 9 10 8 11 -5 6 -12 -5 -20 -1 -24 9 -3 9 -9 14 -14 11
-4 -2 -20 8 -36 24 -16 15 -36 30 -44 33 -18 7 -53 76 -71 138 -36 127 -78
179 -148 181 -42 1 -99 32 -125 68 -14 19 -23 38 -20 42 2 5 -13 17 -36 29
-45 23 -50 37 -17 49 12 5 30 18 40 29 18 20 18 21 -2 39 -12 9 -21 26 -21 36
0 37 -19 57 -55 57 -18 0 -37 5 -40 11 -4 6 -13 8 -20 5 -25 -9 -34 15 -18 51
8 20 12 41 9 49 -9 23 10 25 38 3 28 -22 36 -17 12 7 -8 7 -25 15 -37 17 -13
2 -28 12 -33 23 -6 10 -18 24 -26 30 -8 7 -15 23 -15 35 0 16 -9 28 -29 37
-21 11 -25 16 -15 23 7 4 18 4 24 -1 6 -5 36 -10 67 -13 32 -2 63 -9 70 -14
26 -21 98 -15 98 8 0 31 157 -30 209 -82 32 -32 77 -31 118 1 23 18 28 19 43
5 9 -8 22 -15 28 -15 6 0 23 -11 39 -24 15 -13 38 -26 51 -30 12 -4 34 -19 47
-32 14 -14 30 -22 37 -18 6 4 8 3 4 -4 -3 -6 -2 -13 3 -16 5 -3 7 -14 5 -24
-3 -9 5 -30 16 -47 11 -16 20 -25 20 -20 0 6 -6 19 -14 30 -7 11 -14 32 -14
47 0 23 3 26 18 18 10 -5 36 -13 59 -19 39 -8 42 -7 62 20 15 21 16 27 5 23
-8 -3 -18 -14 -21 -24 -7 -21 -34 -16 -102 18 -22 12 -43 19 -46 16 -2 -3 -14
6 -25 20 -11 14 -28 27 -39 29 -10 1 -34 14 -53 28 -34 24 -67 42 -102 53 -11
3 -23 -2 -31 -14 -12 -17 -40 -25 -78 -22 -9 1 -22 13 -29 27 -7 14 -17 25
-20 25 -4 0 -24 7 -45 15 -30 13 -35 18 -25 30 8 9 21 13 35 9 13 -3 34 0 47
7 12 7 38 12 56 10 27 -2 35 3 50 28 20 35 40 40 110 27 28 -5 37 -1 67 29 32
31 35 39 29 73 -6 38 -5 39 44 64 36 19 54 23 66 16 21 -12 66 5 92 33 16 18
16 19 1 13 -9 -3 -17 -10 -17 -15 0 -5 -9 -9 -19 -9 -11 0 -22 -4 -26 -10 -4
-6 -15 -5 -30 2 -19 9 -29 7 -49 -6 -14 -9 -32 -16 -39 -16 -25 0 -50 -36 -41
-62 13 -37 12 -41 -15 -70 -22 -25 -30 -28 -89 -25 -62 2 -65 1 -92 -32 -24
-28 -33 -32 -55 -27 -16 4 -33 2 -42 -6 -8 -6 -30 -11 -48 -10 -19 2 -37 -4
-45 -13 -10 -12 -17 -13 -44 -1 -32 13 -43 11 -96 -19 -22 -13 -28 -12 -58 5
-18 11 -43 19 -55 19 -12 0 -29 1 -37 4 -8 2 -28 8 -45 12 -33 9 -75 34 -75
44 0 3 10 11 22 16 21 10 55 85 39 85 -5 0 -12 -16 -15 -35 -9 -48 -40 -60
-98 -39 -24 8 -47 20 -53 27 -5 7 -23 18 -38 25 -34 15 -27 32 13 32 18 0 34
8 44 21 11 16 20 19 38 13 38 -12 78 -12 78 0 1 6 10 0 22 -14 19 -23 20 -23
14 -4 -6 21 -5 21 36 11 24 -5 70 -10 103 -11 39 -1 70 -8 88 -20 16 -11 27
-14 27 -7 0 6 -5 11 -11 11 -6 0 -17 6 -24 14 -11 10 -11 16 -2 27 10 10 9 11
-3 2 -8 -5 -22 -11 -30 -11 -8 -1 -28 -3 -44 -5 -17 -3 -42 0 -58 5 l-28 10
23 19 c21 19 21 19 -13 0 -40 -23 -80 -19 -98 10 -10 15 -8 22 11 39 17 16 18
20 4 14 -23 -8 -41 -41 -27 -49 5 -3 10 -12 10 -20 0 -16 -54 -18 -83 -3 -13
7 -22 4 -35 -13 -10 -12 -31 -23 -47 -25 -16 -1 -34 -10 -40 -18 -10 -14 -16
-13 -48 4 -20 11 -45 20 -55 20 -26 0 -72 23 -72 36 0 19 13 24 28 11 12 -9
11 -6 -2 15 -11 17 -13 28 -6 31 6 3 5 4 -2 3 -7 -2 -13 -9 -13 -17 -1 -35
-22 -52 -58 -47 -20 2 -34 2 -32 -1 8 -8 -31 -30 -65 -36 -18 -3 -51 -23 -76
-47 -25 -24 -66 -50 -91 -60 -25 -9 -53 -23 -62 -31 -26 -24 -78 -30 -127 -16
-24 8 -43 16 -42 19 54 110 110 175 132 152 4 -3 4 1 1 10 -4 9 1 27 10 41 9
14 15 29 13 33 -6 25 16 54 50 65 45 16 60 13 90 -14 18 -17 22 -18 16 -4 -3
10 -1 17 5 17 6 0 11 5 11 11 0 5 -5 7 -11 4 -5 -4 -24 -1 -40 5 -24 10 -36
10 -57 1 -26 -13 -26 -13 -8 8 10 11 23 18 27 15 5 -3 9 0 9 5 0 21 -29 10
-54 -20 -30 -35 -33 -31 -11 11 9 17 21 30 27 30 7 0 31 18 54 41 41 40 88 57
122 44 12 -4 13 -8 4 -17 -7 -7 -12 -18 -12 -25 0 -23 -60 -75 -79 -68 -9 4
-22 9 -28 12 -7 3 -13 1 -13 -5 0 -12 78 -32 97 -25 8 3 22 7 31 8 10 1 34 9
56 19 27 12 42 14 49 7 6 -6 16 -11 22 -11 5 0 2 5 -8 11 -18 10 -18 12 -1 30
10 11 35 22 56 26 28 4 46 15 64 38 33 44 30 58 -4 17 -15 -19 -40 -35 -57
-38 -16 -3 -46 -16 -65 -28 -58 -39 -150 -75 -150 -59 0 4 12 19 25 32 14 12
23 27 20 32 -7 10 32 36 65 42 48 9 55 12 85 33 30 21 76 36 105 35 94 -4 112
-9 137 -42 28 -38 28 -30 -2 18 -16 25 -26 31 -55 31 -83 1 -94 9 -56 47 15
14 26 36 26 48 0 13 5 28 12 35 8 8 8 12 1 12 -13 0 -23 -23 -23 -51 0 -17
-10 -23 -31 -21 -4 1 -6 -6 -5 -16 1 -12 -8 -18 -29 -20 -16 -2 -37 -10 -46
-18 -11 -10 -26 -13 -43 -8 -17 4 -26 2 -26 -6 0 -6 -4 -9 -9 -5 -10 5 -61
-43 -61 -57 0 -11 -38 -10 -44 1 -7 10 55 131 67 131 5 0 24 12 42 26 31 23
47 54 59 109 11 53 20 66 63 85 44 19 111 36 126 32 5 -1 6 2 3 7 -3 5 10 16
29 25 19 9 35 23 35 30 0 15 54 38 64 29 3 -4 6 -1 6 5 0 15 -9 15 -49 1 -17
-6 -31 -17 -31 -24 0 -16 -47 -41 -115 -62 -104 -32 -142 -63 -149 -123 -6
-51 -29 -90 -65 -107 -30 -14 -46 -32 -71 -80 -35 -69 -35 -70 -72 -77 -38 -7
-66 -24 -84 -51 -9 -14 -20 -25 -25 -25 -9 0 47 111 111 220 14 25 33 60 41
78 7 17 17 32 20 32 4 0 12 13 19 30 7 16 15 28 19 26 14 -8 51 15 51 31 -1
17 -1 17 -11 1 -9 -16 -39 -26 -39 -13 0 15 38 64 45 57 5 -4 5 -2 2 4 -8 14
17 67 26 57 4 -3 7 2 7 11 0 15 81 171 162 313 11 21 27 49 34 63 8 14 18 26
24 26 23 3 24 5 13 12 -9 5 -7 21 7 61 10 31 16 74 15 104 -3 50 -4 53 -45 74
-30 16 -60 23 -99 23 -54 0 -57 1 -56 25 1 14 10 31 20 39 15 11 17 22 12 71
-5 47 -3 61 12 74 15 14 16 25 8 91 -8 60 -11 70 -18 52 -5 -13 -6 -29 -3 -34
16 -26 11 -91 -7 -109 -14 -14 -17 -26 -12 -47 11 -42 7 -80 -11 -97 -9 -9
-16 -27 -16 -41 0 -30 -34 -33 -50 -4 -6 11 -16 20 -22 20 -6 0 -3 -9 7 -20
18 -20 17 -20 -538 -20 -439 0 -557 3 -558 13 0 10 -2 10 -6 0 -3 -10 -39 -13
-131 -13 -107 0 -132 -3 -158 -19 -43 -26 -68 -83 -70 -159 -2 -55 -6 -66 -31
-90 -16 -15 -35 -36 -43 -47 -20 -27 -68 -57 -80 -50 -17 11 -11 -1 11 -21 11
-10 20 -14 19 -9 -5 23 2 33 30 45 17 7 30 18 30 25 0 8 14 27 31 44 l31 31
22 -42 c43 -82 13 -78 630 -78 431 0 546 -3 539 -13 -6 -6 -17 -30 -26 -52 -8
-22 -61 -123 -116 -225 -56 -101 -101 -187 -101 -191 0 -4 -7 -12 -16 -19 -8
-8 -14 -9 -13 -4 6 35 -22 67 -37 42 -4 -6 -3 -8 4 -4 12 7 21 -4 27 -36 5
-22 -63 -168 -77 -168 -13 0 -9 17 7 30 8 7 15 20 14 29 0 11 -3 10 -11 -6 -6
-13 -15 -23 -20 -23 -5 0 -8 -13 -6 -29 2 -20 -12 -58 -42 -115 l-44 -86 -28
31 c-15 16 -28 26 -28 21 0 -5 9 -17 20 -27 21 -19 26 -54 11 -71 -5 -5 -29
-47 -54 -94 -84 -160 -138 -255 -150 -262 -7 -4 -8 -8 -4 -8 4 0 3 -8 -2 -19
-19 -34 -56 -34 -111 0 -27 17 -50 34 -50 38 0 18 41 42 73 44 19 1 35 7 34
12 -1 6 4 9 11 7 8 -1 11 2 7 8 -4 7 -11 7 -18 2 -18 -14 -67 -21 -73 -10 -3
5 -12 7 -19 5 -6 -3 -23 5 -37 18 -22 20 -27 21 -44 8 -16 -12 -20 -12 -31 4
-7 9 -13 12 -13 6 0 -7 4 -14 10 -18 5 -3 6 -13 3 -23 -6 -14 -4 -15 9 -5 8 7
19 9 23 5 5 -4 5 -2 2 4 -12 21 21 23 39 3 10 -11 24 -17 31 -15 22 9 23 -10
3 -29 -20 -18 -22 -18 -58 0 -32 15 -91 23 -189 25 l-21 0 21 38 c11 21 41 51
66 68 43 28 53 45 67 114 10 50 16 60 44 75 48 25 121 47 136 41 8 -3 13 -2
10 3 -3 4 10 16 29 27 19 10 36 24 37 32 2 8 17 20 35 27 l32 14 7 -47 c6 -42
5 -48 -22 -70 -25 -22 -26 -24 -6 -18 14 5 30 2 40 -6 15 -12 16 -11 4 4 -8 9
-10 23 -6 29 4 7 6 34 5 60 -1 26 3 50 9 54 6 4 8 10 5 15 -7 11 72 33 92 26
8 -3 11 -1 8 4 -3 6 -1 10 4 10 6 0 11 5 11 10 0 7 -6 7 -17 2 -10 -6 -37 -13
-60 -17 -39 -6 -48 -14 -44 -37 0 -5 -3 -8 -9 -8 -10 0 -14 13 -11 37 1 6 -3
14 -9 18 -8 5 -7 12 2 23 10 14 10 15 -1 5 -11 -9 -22 -3 -52 27 -41 40 -42
56 -11 93 18 20 24 44 25 105 0 23 5 42 11 42 15 0 66 48 66 62 0 6 -10 -1
-21 -16 -12 -15 -33 -32 -46 -37 -21 -8 -24 -14 -20 -42 2 -17 0 -40 -5 -50
-5 -10 -11 -27 -13 -38 -2 -11 -11 -26 -19 -35 -28 -27 -20 -70 17 -93 39 -24
66 -63 48 -69 -8 -3 -6 -9 6 -17 17 -13 17 -14 -2 -20 -48 -16 -65 -25 -65
-38 0 -12 -52 -45 -81 -51 -109 -22 -179 -70 -179 -125 0 -30 -11 -52 -23 -44
-6 3 -7 1 -3 -6 17 -27 -37 -83 -65 -66 -5 4 -9 0 -9 -8 0 -26 -23 -37 -44
-21 -17 12 -17 16 -5 31 12 16 12 17 -1 6 -8 -6 -35 -16 -60 -21 l-45 -10 44
1 c27 1 46 -4 49 -11 2 -7 10 -12 18 -12 18 0 18 -24 -1 -40 -8 -7 -15 -18
-15 -25 0 -31 -77 -23 -128 14 -17 11 -33 21 -36 21 -4 0 -15 8 -26 18 -11 10
-33 19 -51 20 -17 1 -44 9 -59 17 -16 8 -43 15 -60 15 -16 0 -30 2 -30 4 0 2
-3 11 -6 20 -4 12 0 16 16 16 22 0 76 26 95 46 21 22 83 63 89 59 3 -3 4 -2 1
2 -7 9 25 43 42 43 7 0 13 -4 13 -10 0 -5 5 -10 12 -10 9 0 9 3 0 12 -21 21
-13 28 30 28 32 0 49 6 69 26 23 22 37 26 80 26 46 0 57 4 80 29 15 16 30 29
33 29 7 0 56 49 56 57 0 3 -11 -2 -24 -11 -30 -19 -40 -2 -19 30 12 18 10 23
-12 44 -14 13 -25 28 -25 32 0 5 -7 16 -15 24 -8 9 -15 11 -15 6 0 -18 27 -63
46 -77 15 -11 17 -16 7 -26 -7 -7 -13 -21 -13 -30 0 -10 6 -19 13 -22 16 -6 4
-18 -21 -20 -11 0 -18 -6 -15 -13 7 -19 -34 -36 -88 -38 -36 -1 -55 -7 -76
-27 -20 -19 -38 -25 -63 -24 -20 1 -43 -5 -53 -14 -17 -14 -20 -14 -33 4 -12
15 -14 16 -14 3 0 -9 5 -18 11 -20 10 -3 -13 -27 -96 -95 -15 -13 -33 -23 -40
-23 -7 0 -15 -5 -17 -11 -2 -6 -15 -13 -28 -15 -53 -8 -117 -27 -165 -50 -32
-15 -52 -19 -56 -12 -4 6 -9 6 -12 1 -6 -9 -40 -9 -137 1 -51 5 -95 20 -105
35 -3 6 -18 11 -33 11 -14 0 -37 11 -51 24 -20 19 -39 26 -83 28 -62 3 -63 5
-48 57 6 22 6 40 -1 53 -15 29 -5 57 40 106 41 45 48 76 29 126 -10 25 -9 30
13 47 13 10 36 19 51 19 21 0 31 8 44 35 9 19 22 35 29 35 22 0 46 31 40 50
-4 12 3 23 22 35 32 22 45 31 83 65 16 14 60 43 99 65 39 21 71 44 71 51 0 8
12 21 26 30 14 10 32 35 41 56 10 25 22 38 33 38 11 0 21 4 25 10 3 5 12 7 21
3 8 -3 34 0 57 6 33 10 47 21 65 51 30 52 28 64 -3 18 -25 -37 -63 -54 -122
-56 -38 -1 -75 -25 -94 -62 -10 -19 -30 -45 -44 -58 -14 -12 -25 -27 -25 -33
0 -5 -25 -21 -55 -35 -31 -15 -58 -30 -61 -35 -3 -5 -10 -9 -15 -9 -6 0 -7 5
-3 12 11 18 12 61 2 75 -5 7 -5 14 2 18 5 3 10 11 10 17 0 6 -6 6 -15 -2 -9
-8 -13 -20 -9 -29 9 -21 6 -63 -5 -74 -5 -5 -7 -15 -5 -21 5 -12 -77 -86 -95
-86 -15 0 -34 -39 -27 -56 4 -9 -3 -18 -20 -24 -13 -6 -33 -23 -42 -40 -10
-18 -25 -30 -38 -30 -12 0 -33 -9 -47 -20 -30 -24 -37 -25 -37 -5 0 8 -4 15
-9 15 -5 0 -1 -27 10 -59 23 -75 20 -91 -31 -148 -40 -46 -48 -70 -31 -101 14
-27 -11 -110 -42 -136 -15 -13 -27 -26 -27 -29 0 -3 -13 -19 -30 -36 -22 -24
-42 -34 -82 -40 -36 -6 -57 -15 -66 -30 -10 -15 -25 -21 -49 -21 -40 0 -133
-45 -133 -64 0 -14 -21 -26 -46 -26 -12 0 -14 91 -14 620 0 492 3 620 13 620
7 0 18 9 25 20 14 22 34 25 60 9 13 -8 32 -9 64 -2 46 10 80 1 118 -33 8 -7
38 -16 66 -19 54 -8 71 1 100 50 6 11 15 15 22 11 17 -10 15 -43 -3 -50 -8 -3
-15 -16 -15 -29 0 -13 -5 -28 -10 -33 -7 -7 0 -26 21 -59 17 -27 32 -56 34
-64 2 -9 8 -28 14 -43 7 -18 7 -37 1 -55 -6 -15 -11 -61 -13 -102 -3 -62 -1
-77 15 -90 10 -8 18 -23 18 -33 0 -10 5 -18 10 -18 18 0 10 39 -11 53 -17 12
-20 25 -19 73 1 33 6 79 12 104 9 38 8 51 -6 78 -15 30 -15 32 4 42 15 8 19
17 14 34 -4 19 -1 26 15 31 12 3 21 13 21 21 0 8 16 31 35 50 23 22 34 42 31
52 -5 14 2 17 36 19 24 1 44 7 47 14 2 7 15 23 27 36 26 26 29 33 14 33 -6 0
-20 -16 -31 -35 -12 -19 -25 -32 -30 -29 -6 3 -16 1 -24 -6 -21 -17 -53 4 -63
43 -10 34 2 62 21 50 6 -3 7 -1 3 5 -5 9 -12 8 -27 -1 -19 -12 -21 -49 -5 -76
10 -15 -43 -26 -57 -12 -14 14 -37 14 -37 0 0 -5 4 -8 9 -5 5 3 14 0 20 -8 8
-10 21 -12 46 -6 33 8 35 7 35 -20 0 -18 -8 -33 -25 -44 -14 -9 -27 -27 -31
-40 -3 -13 -16 -28 -30 -35 -25 -11 -31 -26 -14 -36 12 -7 4 -25 -11 -25 -17
0 -70 93 -59 104 5 5 10 19 10 29 0 11 6 25 14 31 23 18 28 62 9 77 -9 8 -14
9 -10 3 4 -7 -2 -14 -16 -18 -12 -3 -30 -19 -39 -36 -14 -25 -22 -30 -45 -26
-16 2 -28 5 -28 6 0 1 -13 3 -29 5 -16 2 -32 8 -35 13 -11 17 -72 43 -89 38
-44 -13 -76 -14 -94 -2 -24 17 -55 10 -69 -15 -13 -25 -29 -24 -29 1 0 31 75
133 107 147 15 6 47 14 70 18 24 4 45 10 48 14 2 4 35 7 72 6 53 -1 73 3 92
17 13 10 35 18 48 18 24 0 83 51 83 72 0 5 11 24 25 42 14 18 25 38 25 44 0 6
9 26 20 44 11 18 25 50 30 70 6 20 23 52 38 70 15 17 22 29 16 25 -7 -4 -14 0
-17 7 -6 16 67 136 82 136 5 0 12 12 16 27 10 40 24 53 56 53 30 0 54 19 64
49 3 12 12 17 23 14 10 -2 26 5 36 16 11 12 14 21 9 21 -6 0 -16 -7 -24 -16
-12 -14 -14 -14 -25 1 -11 15 -15 12 -34 -24 -11 -23 -28 -42 -38 -42 -9 -1
-21 -2 -27 -4 -5 -1 -16 -3 -23 -3 -7 -1 -19 -17 -27 -35 -8 -19 -25 -47 -39
-63 -14 -16 -34 -40 -46 -54 l-21 -25 5 34 c3 19 2 39 -3 45 -5 6 -11 33 -14
60 -4 48 -19 69 -65 95 -26 15 -5 39 65 74 112 57 240 97 383 120 41 7 2753 2
2775 -5z m-3197 -225 c17 -14 24 -30 26 -67 2 -26 10 -52 17 -56 10 -7 10 -14
2 -33 -6 -13 -8 -30 -3 -36 9 -15 -13 -92 -35 -123 -8 -13 -15 -32 -15 -44 0
-12 -11 -38 -25 -58 -14 -20 -25 -46 -25 -56 0 -11 -4 -20 -10 -20 -5 0 -19
-20 -31 -45 -12 -25 -24 -46 -28 -46 -3 -1 -16 -3 -28 -4 -12 -1 -34 -10 -48
-19 -18 -12 -43 -16 -83 -15 -31 2 -67 -2 -79 -9 -11 -6 -43 -14 -69 -17 -53
-7 -78 -18 -112 -49 l-24 -21 7 40 c4 22 20 79 36 127 69 212 195 392 379 538
83 67 85 68 105 49 11 -10 30 -26 43 -36z m2518 -1538 c-27 -21 -53 -20 -36 0
7 8 22 15 34 15 21 -1 21 -1 2 -15z m-82 -11 c9 -3 16 -10 16 -14 0 -8 -72
-40 -91 -40 -16 0 5 30 32 45 13 7 25 13 26 14 1 1 8 -2 17 -5z m-418 -329
c-9 -19 -21 -35 -27 -35 -5 0 0 18 11 41 26 49 40 44 16 -6z m-2034 -9 c14 4
29 -2 48 -21 15 -14 38 -27 51 -29 13 -1 40 -11 59 -22 19 -10 56 -19 82 -20
26 -1 53 -6 60 -11 20 -15 50 -24 43 -13 -3 6 1 10 9 11 54 3 74 2 86 -6 9 -5
11 -4 6 3 -4 7 -1 12 6 12 10 0 13 -11 12 -37 -1 -21 -3 -44 -3 -52 -1 -11 -4
-11 -18 0 -17 13 -17 12 -2 -6 10 -13 15 -36 14 -62 -2 -31 1 -43 11 -43 8 0
23 -9 34 -20 11 -11 20 -16 20 -10 0 5 -11 17 -25 26 -18 12 -24 23 -21 40 3
13 1 24 -4 24 -6 0 -5 11 0 26 6 14 10 43 10 65 0 27 4 39 14 39 8 0 18 -4 21
-10 3 -5 23 -10 45 -10 37 0 39 -2 56 -50 19 -53 74 -120 99 -120 19 0 19 -16
0 -23 -8 -4 -21 -22 -29 -41 -8 -19 -24 -37 -35 -41 -12 -3 -21 -10 -21 -15 0
-6 -38 -20 -60 -22 -3 0 -14 -6 -24 -14 -17 -11 -21 -10 -37 11 -11 13 -19 32
-19 44 0 11 -9 26 -19 33 -14 10 -17 18 -10 28 12 20 11 30 -1 30 -6 0 -9 -3
-9 -7 4 -26 -2 -34 -23 -28 -16 5 -12 0 12 -17 21 -14 36 -34 38 -48 2 -14 12
-34 22 -45 23 -26 31 -82 13 -96 -7 -6 -13 -18 -13 -26 0 -7 -7 -25 -16 -38
-9 -13 -13 -28 -10 -34 4 -5 -7 -19 -23 -30 -18 -13 -32 -17 -36 -11 -3 5 -16
10 -29 10 -12 0 -35 14 -51 30 -16 17 -34 30 -40 30 -13 0 -45 36 -45 50 0 6
-4 10 -8 10 -5 0 -18 9 -30 20 -12 12 -22 19 -22 16 0 -2 -20 2 -45 9 -32 10
-44 11 -42 2 3 -15 -72 -35 -81 -21 -4 5 -26 24 -49 43 -24 18 -43 39 -43 48
0 8 -11 29 -25 47 -14 18 -25 37 -25 42 0 6 -9 10 -21 11 -45 4 -109 36 -122
62 -12 24 -17 26 -88 27 -70 2 -119 15 -119 32 0 13 85 42 123 42 30 0 40 5
49 25 8 17 20 25 37 26 59 1 78 12 135 73 53 58 62 63 84 55 14 -5 33 -7 44
-3z m584 -75 c13 -10 20 -21 17 -25 -10 -10 -54 -7 -89 6 -30 10 -31 13 -16
24 24 19 60 17 88 -5z m1898 4 c20 -9 41 -13 45 -10 5 2 14 -2 21 -10 20 -24
-17 -19 -75 10 -55 27 -49 34 9 10z m-1810 -30 c11 -8 34 -15 51 -15 20 0 54
-15 91 -38 32 -21 67 -41 77 -45 15 -6 12 -11 -20 -41 -42 -37 -120 -67 -131
-49 -4 6 -17 13 -29 17 -27 8 -70 64 -79 102 -4 16 -11 35 -17 42 -7 9 -5 17
9 27 23 18 25 18 48 0z m1992 -41 c21 -15 52 -31 69 -37 39 -13 93 -54 100
-75 2 -10 15 -22 27 -27 16 -7 22 -17 20 -32 -2 -12 5 -27 15 -35 10 -7 19
-20 21 -28 2 -8 7 -17 12 -20 14 -9 14 -34 1 -73 -9 -28 -10 -41 -2 -51 11
-13 66 -31 85 -27 22 4 46 -12 46 -33 0 -12 9 -32 21 -45 20 -21 20 -23 4 -41
-10 -11 -21 -17 -26 -14 -4 2 -13 -5 -19 -17 -11 -19 -13 -20 -30 -4 -10 9
-23 14 -28 11 -14 -9 -43 28 -46 60 -2 16 -4 32 -5 36 0 4 -23 33 -51 63 -27
30 -50 64 -50 76 0 11 -11 41 -26 66 -18 33 -21 44 -10 39 46 -18 46 -15 -1
13 -29 17 -57 31 -62 31 -5 0 -21 14 -36 31 -29 35 -69 109 -59 109 3 0 -1 11
-10 25 -21 32 -9 32 40 -1z m-1612 -62 c3 -5 -1 -9 -9 -9 -8 0 -15 4 -15 9 0
4 4 8 9 8 6 0 12 -4 15 -8z m174 -21 c12 -6 22 -15 22 -20 0 -4 12 -13 28 -20
62 -28 92 -55 92 -84 0 -24 -138 -298 -159 -317 -3 -3 -14 -22 -23 -42 -18
-38 -42 -47 -83 -32 -14 6 -14 8 1 25 9 11 12 19 7 19 -6 0 -13 -7 -17 -15
-10 -26 -33 -16 -57 23 -32 51 -43 60 -122 100 -29 15 -31 18 -41 64 -3 14
-24 45 -46 68 -22 23 -40 50 -40 61 0 11 -7 31 -16 44 -15 23 -14 24 15 39 16
9 36 16 43 16 7 0 30 18 52 40 39 40 39 40 108 37 38 -2 71 0 74 5 3 5 9 6 14
3 4 -3 18 -1 31 3 25 10 83 1 117 -17z m760 -379 c18 -13 37 -34 41 -45 10
-27 2 -59 -13 -50 -6 3 -3 -3 7 -14 9 -11 17 -32 17 -46 0 -22 5 -27 25 -27
20 0 25 -6 31 -37 10 -57 21 -71 70 -95 58 -27 73 -60 45 -99 -13 -17 -18 -36
-15 -53 l5 -27 -393 2 c-216 1 -387 4 -380 6 6 3 10 9 7 13 -3 5 4 26 16 47
12 21 65 117 117 213 133 248 110 222 199 216 41 -3 78 -7 80 -10 3 -3 -1 -16
-9 -28 -16 -25 -23 -84 -11 -91 5 -3 9 10 10 28 1 19 7 43 13 55 9 17 14 19
26 9 8 -6 14 -7 14 -3 0 5 -12 18 -27 29 l-26 20 39 5 c69 9 78 7 112 -18z
m-1068 -6 c36 -14 72 -45 111 -95 32 -42 40 -58 32 -70 -6 -9 -18 -16 -27 -16
-10 0 -37 -20 -62 -43 -43 -43 -62 -51 -25 -10 24 25 18 44 -29 85 -28 25 -40
45 -49 86 -14 63 -7 90 17 77 10 -5 24 -11 32 -14z m-619 -29 c-1 -12 -15 -9
-19 4 -3 6 1 10 8 8 6 -3 11 -8 11 -12z m2020 -379 c22 -33 50 -63 62 -68 15
-6 -9 -9 -75 -9 -57 -1 -98 3 -98 9 0 5 7 30 16 56 8 25 13 52 10 59 -7 18 2
24 25 18 11 -3 38 -32 60 -65z"/>
<path d="M3213 4599 c-2 -23 3 -25 10 -4 4 8 3 16 -1 19 -4 3 -9 -4 -9 -15z"/>
<path d="M3280 4600 c-9 -6 -10 -10 -3 -10 6 0 15 5 18 10 8 12 4 12 -15 0z"/>
<path d="M3473 4496 c-6 -8 -9 -16 -6 -20 3 -3 -6 -11 -20 -17 -15 -7 -24 -16
-21 -21 7 -11 28 6 55 44 20 28 14 39 -8 14z"/>
<path d="M1528 4410 c-50 -51 -64 -88 -42 -109 15 -15 16 -14 6 4 -13 26 -1
53 42 94 20 19 36 38 36 42 0 13 -1 12 -42 -31z"/>
<path d="M3355 4440 c-3 -5 -2 -10 4 -10 5 0 13 5 16 10 3 6 2 10 -4 10 -5 0
-13 -4 -16 -10z"/>
<path d="M870 4422 c0 -4 18 -17 40 -29 22 -12 40 -18 40 -15 0 4 -18 17 -40
29 -22 12 -40 18 -40 15z"/>
<path d="M3346 4404 c-5 -14 -4 -15 9 -4 17 14 19 20 6 20 -5 0 -12 -7 -15
-16z"/>
<path d="M3000 4380 c0 -5 5 -10 11 -10 5 0 7 5 4 10 -3 6 -8 10 -11 10 -2 0
-4 -4 -4 -10z"/>
<path d="M3298 4365 c-21 -27 -24 -43 -5 -23 26 28 39 48 31 48 -5 0 -17 -11
-26 -25z"/>
<path d="M953 4342 c2 -12 6 -24 10 -28 3 -4 4 4 2 16 -6 30 -16 40 -12 12z"/>
<path d="M3016 4345 c5 -13 15 -16 41 -12 26 5 36 2 46 -14 6 -10 15 -19 20
-19 4 0 0 11 -10 25 -14 19 -24 23 -46 19 -16 -3 -34 0 -43 7 -12 10 -13 9 -8
-6z"/>
<path d="M1071 4347 c2 -2 18 -11 34 -21 l30 -17 -24 20 c-13 12 -28 21 -34
21 -6 0 -8 -1 -6 -3z"/>
<path d="M1035 4329 c-11 -16 -1 -19 13 -3 7 8 8 14 3 14 -5 0 -13 -5 -16 -11z"/>
<path d="M960 4296 c0 -3 9 -10 20 -16 11 -6 20 -8 20 -6 0 3 -9 10 -20 16
-11 6 -20 8 -20 6z"/>
<path d="M1010 4290 c0 -5 5 -10 10 -10 6 0 10 5 10 10 0 6 -4 10 -10 10 -5 0
-10 -4 -10 -10z"/>
<path d="M1130 4290 c0 -5 5 -10 11 -10 5 0 7 5 4 10 -3 6 -8 10 -11 10 -2 0
-4 -4 -4 -10z"/>
<path d="M1199 4289 c14 -5 30 -13 36 -17 6 -4 2 1 -8 11 -11 9 -27 17 -36 16
-10 0 -7 -4 8 -10z"/>
<path d="M1451 4260 c-12 -17 -18 -30 -14 -30 10 1 46 50 41 56 -3 2 -14 -10
-27 -26z"/>
<path d="M3107 4276 c-3 -8 2 -20 11 -27 14 -11 15 -11 5 0 -6 7 -9 20 -6 27
3 8 3 14 0 14 -3 0 -7 -6 -10 -14z"/>
<path d="M1255 4240 c3 -5 8 -10 11 -10 2 0 4 5 4 10 0 6 -5 10 -11 10 -5 0
-7 -4 -4 -10z"/>
<path d="M1421 4201 c-8 -15 -8 -22 1 -27 7 -4 10 -4 6 1 -4 4 -3 14 4 22 6 7
8 16 5 19 -3 3 -10 -3 -16 -15z"/>
<path d="M1427 4139 c4 -13 8 -18 11 -10 2 7 -1 18 -6 23 -8 8 -9 4 -5 -13z"/>
<path d="M791 4128 c-1 -4 4 -18 11 -32 12 -27 58 -64 58 -47 0 5 -8 12 -18
15 -10 4 -26 21 -35 39 -8 17 -16 29 -16 25z"/>
<path d="M1407 4084 c-13 -18 -14 -22 -3 -18 8 3 17 13 20 21 10 25 3 23 -17
-3z"/>
<path d="M1395 4033 c4 -10 9 -36 10 -58 1 -32 -4 -45 -27 -67 -18 -17 -23
-25 -13 -24 28 4 51 52 48 98 -4 63 -5 68 -16 68 -5 0 -6 -8 -2 -17z"/>
<path d="M686 4018 c4 -20 0 -31 -15 -44 -11 -10 -18 -21 -15 -26 3 -4 0 -17
-6 -28 -7 -13 -7 -20 0 -20 9 0 11 6 14 43 1 6 9 20 19 30 19 19 21 35 7 57
-8 11 -9 8 -4 -12z"/>
<path d="M846 3994 c-9 -24 -2 -26 12 -4 7 11 8 20 3 20 -5 0 -12 -7 -15 -16z"/>
<path d="M3509 3993 c-13 -16 -12 -17 4 -4 16 13 21 21 13 21 -2 0 -10 -8 -17
-17z"/>
<path d="M837 3953 c-4 -3 -7 -11 -7 -17 0 -6 5 -5 12 2 6 6 9 14 7 17 -3 3
-9 2 -12 -2z"/>
<path d="M960 3901 c0 -8 45 -23 67 -22 5 0 18 -7 31 -15 22 -14 22 -14 10 6
-8 12 -23 20 -41 20 -16 0 -37 5 -48 10 -11 7 -19 7 -19 1z"/>
<path d="M1245 3899 c-4 -6 -5 -12 -2 -15 2 -3 7 2 10 11 7 17 1 20 -8 4z"/>
<path d="M1270 3906 c0 -2 9 -6 20 -9 11 -3 18 -1 14 4 -5 9 -34 13 -34 5z"/>
<path d="M1434 3898 c-4 -7 -3 -10 1 -5 5 4 20 -3 34 -15 l26 -23 -24 28 c-28
31 -28 31 -37 15z"/>
<path d="M1120 3860 c-12 -7 -10 -9 7 -7 12 0 19 5 17 9 -6 10 -6 10 -24 -2z"/>
<path d="M1370 3862 c0 -4 -16 -23 -35 -42 -19 -19 -35 -39 -35 -43 0 -5 15 6
33 25 48 50 61 68 48 68 -6 0 -11 -4 -11 -8z"/>
<path d="M1516 3822 c-3 -5 1 -9 9 -9 8 0 12 4 9 9 -3 4 -7 8 -9 8 -2 0 -6 -4
-9 -8z"/>
<path d="M3563 3748 c-21 -28 -22 -36 -5 -49 15 -12 16 -12 5 2 -10 12 -9 20
3 37 16 23 13 31 -3 10z"/>
<path d="M2108 3663 c7 -3 16 -2 19 1 4 3 -2 6 -13 5 -11 0 -14 -3 -6 -6z"/>
<path d="M3547 3647 c-9 -11 -17 -25 -17 -30 0 -6 10 2 21 17 12 15 20 29 17
31 -2 2 -11 -6 -21 -18z"/>
<path d="M3732 3630 c0 -14 2 -19 5 -12 2 6 2 18 0 25 -3 6 -5 1 -5 -13z"/>
<path d="M3639 3615 c-59 -16 -65 -20 -72 -45 -5 -19 -3 -19 18 4 13 14 30 27
37 27 7 1 23 3 36 4 13 1 28 7 35 14 13 13 6 13 -54 -4z"/>
<path d="M3511 3577 c-13 -21 -12 -21 5 -5 10 10 16 20 13 22 -3 3 -11 -5 -18
-17z"/>
<path d="M3711 3540 c-12 -17 -18 -30 -14 -30 10 1 46 50 41 56 -3 2 -14 -10
-27 -26z"/>
<path d="M2285 3520 c-3 -5 -1 -10 4 -10 6 0 11 5 11 10 0 6 -2 10 -4 10 -3 0
-8 -4 -11 -10z"/>
<path d="M2195 3480 c3 -5 8 -10 11 -10 2 0 4 5 4 10 0 6 -5 10 -11 10 -5 0
-7 -4 -4 -10z"/>
<path d="M2593 3475 c0 -8 4 -12 9 -9 5 3 6 10 3 15 -9 13 -12 11 -12 -6z"/>
<path d="M1970 3438 c-12 -22 -12 -22 6 -6 10 10 15 20 12 24 -4 3 -12 -5 -18
-18z"/>
<path d="M3628 3434 c-21 -13 -38 -30 -38 -37 0 -9 3 -9 9 1 4 8 26 24 47 37
21 14 35 24 29 24 -5 0 -27 -11 -47 -25z"/>
<path d="M2589 3443 c0 -5 -2 -16 -4 -26 -2 -11 -1 -16 3 -13 8 8 14 46 7 46
-3 0 -5 -3 -6 -7z"/>
<path d="M3474 3429 c14 -11 32 -18 39 -16 7 4 6 6 -4 6 -9 1 -22 8 -29 16 -7
8 -17 15 -23 15 -5 0 2 -9 17 -21z"/>
<path d="M3530 3430 c0 -5 5 -10 11 -10 5 0 7 5 4 10 -3 6 -8 10 -11 10 -2 0
-4 -4 -4 -10z"/>
<path d="M1977 3390 c3 -11 9 -23 14 -25 4 -3 6 -12 2 -20 -3 -8 -1 -15 5 -15
11 0 10 25 -1 36 -4 4 -7 16 -7 26 0 10 -4 18 -9 18 -5 0 -7 -9 -4 -20z"/>
<path d="M3566 3375 c4 -8 10 -12 15 -9 11 6 2 24 -11 24 -5 0 -7 -7 -4 -15z"/>
<path d="M2037 3373 c-4 -3 -7 -11 -7 -17 0 -6 5 -5 12 2 6 6 9 14 7 17 -3 3
-9 2 -12 -2z"/>
<path d="M3606 3372 c-3 -5 1 -9 9 -9 8 0 12 4 9 9 -3 4 -7 8 -9 8 -2 0 -6 -4
-9 -8z"/>
<path d="M3110 3361 c0 -6 4 -13 10 -16 6 -3 7 1 4 9 -7 18 -14 21 -14 7z"/>
<path d="M3550 3339 c0 -5 5 -7 10 -4 6 3 10 8 10 11 0 2 -4 4 -10 4 -5 0 -10
-5 -10 -11z"/>
<path d="M3487 3320 c-9 -11 -13 -20 -7 -20 5 0 13 6 17 14 4 7 15 16 23 19
13 5 13 6 0 6 -9 1 -23 -8 -33 -19z"/>
<path d="M1986 3303 c-6 -14 -5 -15 5 -6 7 7 10 15 7 18 -3 3 -9 -2 -12 -12z"/>
<path d="M2110 3299 c0 -5 5 -7 10 -4 6 3 10 8 10 11 0 2 -4 4 -10 4 -5 0 -10
-5 -10 -11z"/>
<path d="M3402 3284 c-7 -8 -8 -14 -3 -14 10 0 25 19 20 25 -2 1 -10 -3 -17
-11z"/>
<path d="M2273 3278 c-23 -29 -33 -57 -23 -63 6 -4 10 -3 9 2 -3 18 2 32 17
48 9 9 14 18 12 21 -3 2 -10 -1 -15 -8z"/>
<path d="M1974 3243 c-4 -16 -14 -36 -22 -46 -8 -9 -13 -19 -10 -22 3 -3 12 5
20 17 16 24 32 78 23 78 -2 0 -8 -12 -11 -27z"/>
<path d="M3560 3230 c-9 -6 -10 -10 -3 -10 6 0 15 5 18 10 8 12 4 12 -15 0z"/>
<path d="M2060 3170 c-9 -6 -10 -10 -3 -10 6 0 15 5 18 10 8 12 4 12 -15 0z"/>
<path d="M2136 3168 c3 -5 10 -6 15 -3 13 9 11 12 -6 12 -8 0 -12 -4 -9 -9z"/>
<path d="M2410 3159 c0 -5 5 -7 10 -4 6 3 10 8 10 11 0 2 -4 4 -10 4 -5 0 -10
-5 -10 -11z"/>
<path d="M2350 3090 c0 -5 5 -10 10 -10 6 0 10 5 10 10 0 6 -4 10 -10 10 -5 0
-10 -4 -10 -10z"/>
<path d="M3790 3075 c-7 -8 -10 -24 -7 -36 7 -25 -12 -81 -24 -73 -5 3 -9 0
-9 -5 0 -14 11 -13 31 2 10 8 15 26 14 57 -1 25 2 51 8 58 14 17 2 15 -13 -3z"/>
<path d="M2310 3060 c-13 -8 -13 -10 2 -10 9 0 20 5 23 10 8 13 -5 13 -25 0z"/>
<path d="M2360 3061 c0 -6 4 -13 10 -16 6 -3 7 1 4 9 -7 18 -14 21 -14 7z"/>
<path d="M3486 3057 c3 -10 9 -15 12 -12 3 3 0 11 -7 18 -10 9 -11 8 -5 -6z"/>
<path d="M3589 3023 c12 -24 31 -39 31 -25 0 5 -10 17 -21 28 -22 19 -22 19
-10 -3z"/>
<path d="M2299 3013 c-13 -16 -12 -17 4 -4 9 7 17 15 17 17 0 8 -8 3 -21 -13z"/>
<path d="M3285 3020 c3 -5 8 -10 11 -10 2 0 4 5 4 10 0 6 -5 10 -11 10 -5 0
-7 -4 -4 -10z"/>
<path d="M3441 3017 c2 -1 13 -9 24 -17 19 -14 19 -14 6 3 -7 9 -18 17 -24 17
-6 0 -8 -1 -6 -3z"/>
<path d="M3668 3007 c-15 -12 -15 -15 3 -37 24 -32 24 -49 0 -43 -10 3 -21 1
-24 -4 -3 -5 6 -8 19 -8 29 2 54 22 39 33 -28 20 -37 42 -25 57 15 18 11 19
-12 2z"/>
<path d="M3946 2977 c3 -10 9 -15 12 -12 3 3 0 11 -7 18 -10 9 -11 8 -5 -6z"/>
<path d="M2150 2968 c0 -2 9 -11 20 -21 11 -9 20 -13 20 -7 0 5 -9 14 -20 20
-11 6 -20 9 -20 8z"/>
<path d="M3720 2940 c-8 -15 -8 -25 0 -38 10 -15 11 -15 7 4 -2 12 0 29 5 38
5 9 7 16 4 16 -3 0 -10 -9 -16 -20z"/>
<path d="M1845 2943 c3 -3 -5 -18 -17 -32 -13 -14 -15 -20 -6 -12 9 7 21 10
26 7 10 -6 9 31 -1 39 -4 3 -5 2 -2 -2z"/>
<path d="M3460 2926 c0 -2 8 -10 18 -17 15 -13 16 -12 3 4 -13 16 -21 21 -21
13z"/>
<path d="M3595 2910 c-3 -5 -1 -10 4 -10 6 0 11 5 11 10 0 6 -2 10 -4 10 -3 0
-8 -4 -11 -10z"/>
<path d="M3760 2916 c0 -2 8 -10 18 -17 15 -13 16 -12 3 4 -13 16 -21 21 -21
13z"/>
<path d="M1631 2892 c-7 -14 -6 -19 4 -19 7 0 13 9 12 19 -1 10 -2 18 -4 18
-1 0 -7 -8 -12 -18z"/>
<path d="M2270 2901 c0 -6 4 -13 10 -16 6 -3 7 1 4 9 -7 18 -14 21 -14 7z"/>
<path d="M3541 2860 c-19 -16 -33 -31 -30 -34 2 -2 22 11 43 30 22 19 35 34
30 34 -5 -1 -24 -14 -43 -30z"/>
<path d="M1560 2870 c-9 -6 -10 -10 -3 -10 6 0 15 5 18 10 8 12 4 12 -15 0z"/>
<path d="M1680 2876 c0 -2 8 -10 18 -17 15 -13 16 -12 3 4 -13 16 -21 21 -21
13z"/>
<path d="M1815 2860 c3 -5 8 -10 11 -10 2 0 4 5 4 10 0 6 -5 10 -11 10 -5 0
-7 -4 -4 -10z"/>
<path d="M2990 2861 c0 -5 5 -13 10 -16 6 -3 10 -2 10 4 0 5 -4 13 -10 16 -5
3 -10 2 -10 -4z"/>
<path d="M3696 2845 c-16 -12 -17 -15 -4 -15 8 0 21 7 28 15 16 19 1 19 -24 0z"/>
<path d="M3020 2840 c0 -5 3 -9 8 -8 4 1 17 -3 28 -10 12 -6 24 -8 28 -5 3 3
6 1 6 -5 0 -7 5 -12 11 -12 8 0 8 5 -1 15 -7 8 -16 13 -20 10 -4 -2 -16 2 -26
10 -23 17 -34 19 -34 5z"/>
<path d="M3640 2835 c7 -8 17 -15 22 -15 5 0 3 7 -6 15 -8 8 -18 15 -22 15 -3
0 -1 -7 6 -15z"/>
<path d="M1488 2805 c-24 -32 -23 -40 3 -14 11 11 19 24 17 29 -2 4 -11 -2
-20 -15z"/>
<path d="M3125 2820 c-7 -11 -6 -12 35 -14 16 0 32 4 34 11 3 8 -4 9 -27 2
-39 -11 -40 -11 -32 1 3 6 4 10 1 10 -3 0 -8 -4 -11 -10z"/>
<path d="M3495 2800 c-3 -6 1 -7 9 -4 18 7 21 14 7 14 -6 0 -13 -4 -16 -10z"/>
<path d="M3905 2780 c-16 -7 -17 -9 -3 -9 9 -1 20 4 23 9 7 11 7 11 -20 0z"/>
<path d="M2945 2770 c-3 -6 1 -7 9 -4 18 7 21 14 7 14 -6 0 -13 -4 -16 -10z"/>
<path d="M1456 2753 c-15 -15 -2 -19 62 -18 37 0 82 -2 100 -6 17 -4 32 -3 32
1 0 14 -31 19 -95 16 -33 -1 -67 1 -76 5 -9 5 -19 5 -23 2z"/>
<path d="M2875 2730 c-3 -6 1 -7 9 -4 18 7 21 14 7 14 -6 0 -13 -4 -16 -10z"/>
<path d="M2836 2722 c-3 -5 1 -9 9 -9 8 0 12 4 9 9 -3 4 -7 8 -9 8 -2 0 -6 -4
-9 -8z"/>
<path d="M2774 2704 c-18 -14 -18 -15 4 -4 12 6 22 13 22 15 0 8 -5 6 -26 -11z"/>
<path d="M2230 2669 c0 -5 5 -7 10 -4 6 3 10 8 10 11 0 2 -4 4 -10 4 -5 0 -10
-5 -10 -11z"/>
<path d="M2191 2656 c-13 -7 -20 -15 -15 -18 5 -3 18 3 28 13 23 22 20 23 -13
5z"/>
<path d="M3076 2657 c3 -10 9 -15 12 -12 3 3 0 11 -7 18 -10 9 -11 8 -5 -6z"/>
<path d="M3160 2619 c-13 -9 -12 -10 3 -5 11 3 17 0 17 -9 0 -8 4 -15 9 -15 5
0 7 9 4 20 -6 23 -12 24 -33 9z"/>
<path d="M2146 2596 c3 -8 13 -17 22 -21 13 -5 13 -2 -3 15 -21 24 -26 25 -19
6z"/>
<path d="M3145 2566 c-23 -25 -26 -40 -4 -19 12 12 21 24 18 27 -2 2 -9 -1
-14 -8z"/>
<path d="M3194 2555 c-1 -14 2 -22 7 -19 11 6 12 44 2 44 -5 0 -9 -11 -9 -25z"/>
<path d="M2990 2521 c0 -6 4 -13 10 -16 6 -3 7 1 4 9 -7 18 -14 21 -14 7z"/>
<path d="M3275 2510 c21 -24 26 -25 19 -6 -3 8 -13 17 -22 21 -13 5 -13 2 3
-15z"/>
<path d="M3184 2498 c7 -36 17 -58 28 -58 5 0 2 10 -6 21 -8 12 -12 27 -10 34
3 7 0 16 -6 20 -7 4 -9 -1 -6 -17z"/>
<path d="M3109 2491 c-2 -6 -15 -13 -29 -16 -14 -3 -26 -9 -28 -15 -2 -5 -9
-10 -15 -10 -6 0 -23 -15 -38 -32 l-27 -33 -31 23 c-33 24 -43 16 -13 -11 29
-26 51 -20 94 23 22 22 48 40 58 40 19 0 47 27 37 36 -2 3 -7 0 -8 -5z"/>
<path d="M2830 2471 c0 -5 7 -11 15 -15 27 -10 16 -25 -19 -24 -33 1 -96 -33
-96 -53 0 -5 -6 -9 -13 -9 -7 0 -23 -13 -35 -30 -28 -37 -29 -51 -2 -20 11 13
20 26 20 30 0 5 11 11 25 14 14 4 25 11 25 17 0 6 5 7 12 3 7 -4 8 -3 4 4 -4
7 -1 12 8 12 9 0 16 3 16 8 0 4 17 8 38 10 33 2 39 -1 48 -25 18 -51 11 -117
-17 -154 -31 -42 -27 -75 11 -97 16 -9 34 -27 39 -39 6 -13 15 -23 20 -23 5 0
12 -16 15 -35 4 -19 10 -35 14 -36 4 0 21 -2 37 -4 23 -3 26 -2 10 4 -11 5
-23 7 -27 5 -6 -4 -19 25 -24 56 -2 8 -8 16 -14 18 -6 2 -15 15 -20 28 -6 13
-21 29 -34 34 -37 14 -41 43 -11 88 14 22 26 48 27 58 1 30 -10 103 -18 116
-4 7 -3 8 4 4 19 -12 14 0 -15 33 -27 31 -43 39 -43 22z"/>
<path d="M3236 2420 c8 -43 14 -51 14 -19 0 13 -5 31 -10 39 -7 11 -8 5 -4
-20z"/>
<path d="M444 2424 c-19 -15 -19 -15 1 -6 11 5 27 12 35 15 13 5 13 6 -1 6 -8
1 -24 -6 -35 -15z"/>
<path d="M400 2395 c-7 -8 -16 -13 -20 -10 -4 3 -14 -3 -21 -13 -12 -15 -12
-15 1 -5 15 11 20 13 39 13 5 0 11 7 15 15 7 19 2 19 -14 0z"/>
<path d="M235 2381 c-3 -6 -3 -11 2 -10 4 1 10 0 13 -1 17 -7 48 -5 44 2 -4 5
-12 7 -19 4 -7 -2 -17 0 -23 6 -6 6 -12 6 -17 -1z"/>
<path d="M3275 2381 c-3 -5 -2 -12 3 -15 5 -3 9 1 9 9 0 17 -3 19 -12 6z"/>
<path d="M3030 2376 c0 -2 7 -7 16 -10 8 -3 12 -2 9 4 -6 10 -25 14 -25 6z"/>
<path d="M310 2360 c0 -5 7 -7 15 -4 8 4 15 8 15 10 0 2 -7 4 -15 4 -8 0 -15
-4 -15 -10z"/>
<path d="M3240 2361 c0 -5 5 -13 10 -16 6 -3 10 -2 10 4 0 5 -4 13 -10 16 -5
3 -10 2 -10 -4z"/>
<path d="M4640 2355 c-7 -9 -10 -18 -6 -22 3 -3 6 -1 6 6 0 9 8 11 21 8 16 -4
18 -3 8 9 -14 17 -14 17 -29 -1z"/>
<path d="M3818 2353 c6 -2 18 -2 25 0 6 3 1 5 -13 5 -14 0 -19 -2 -12 -5z"/>
<path d="M3200 2325 c-7 -9 -11 -17 -9 -20 3 -2 10 5 17 15 14 24 10 26 -8 5z"/>
<path d="M3251 2318 c-1 -9 13 -26 29 -38 17 -12 30 -17 30 -11 0 5 -8 12 -19
16 -10 3 -23 15 -29 28 -8 17 -11 18 -11 5z"/>
<path d="M3130 2298 c0 -4 4 -8 9 -8 6 0 12 4 15 8 3 5 -1 9 -9 9 -8 0 -15 -4
-15 -9z"/>
<path d="M3079 2283 c-12 -16 -12 -17 1 -7 8 6 22 14 30 17 13 5 12 6 -1 6 -9
1 -23 -7 -30 -16z"/>
<path d="M2663 2271 c0 -11 5 -18 9 -15 4 3 5 11 1 19 -7 21 -12 19 -10 -4z"/>
<path d="M3024 2282 c3 -5 -2 -21 -10 -37 -8 -15 -12 -30 -9 -33 2 -3 12 11
20 31 18 43 18 47 4 47 -5 0 -8 -4 -5 -8z"/>
<path d="M3312 2230 c0 -14 2 -19 5 -12 2 6 2 18 0 25 -3 6 -5 1 -5 -13z"/>
<path d="M1461 2212 c-1 -7 -11 -17 -23 -22 -13 -5 -16 -9 -8 -9 23 -1 43 15
37 30 -4 11 -6 11 -6 1z"/>
<path d="M2769 2208 c7 -10 23 -17 35 -17 20 1 20 2 1 6 -11 3 -27 10 -35 17
-13 10 -13 9 -1 -6z"/>
<path d="M805 2200 c3 -5 8 -10 11 -10 2 0 4 5 4 10 0 6 -5 10 -11 10 -5 0 -7
-4 -4 -10z"/>
<path d="M1347 2194 c2 -6 13 -9 24 -7 23 6 17 16 -10 18 -11 1 -17 -4 -14
-11z"/>
<path d="M2866 2189 c3 -5 10 -9 15 -9 5 0 19 -9 31 -19 21 -21 44 -18 66 8 8
9 11 12 9 6 -3 -6 15 -11 41 -13 46 -2 54 5 12 13 -12 2 -28 10 -36 16 -12 10
-20 7 -43 -15 -27 -26 -28 -26 -45 -7 -18 19 -61 37 -50 20z"/>
<path d="M1275 2170 c-3 -5 -1 -10 4 -10 6 0 11 5 11 10 0 6 -2 10 -4 10 -3 0
-8 -4 -11 -10z"/>
<path d="M4460 2170 c8 -5 22 -10 30 -10 13 0 13 1 0 10 -8 5 -22 10 -30 10
-13 0 -13 -1 0 -10z"/>
<path d="M830 2155 c7 -9 15 -13 17 -11 7 7 -7 26 -19 26 -6 0 -6 -6 2 -15z"/>
<path d="M4520 2155 c11 -13 11 -20 0 -40 -7 -14 -20 -27 -29 -30 -9 -3 -22
-15 -30 -27 l-14 -23 24 20 c13 10 36 32 51 48 23 24 25 32 15 48 -6 10 -16
19 -21 19 -4 0 -3 -7 4 -15z"/>
<path d="M200 2124 c7 -8 19 -14 28 -14 9 0 27 -10 41 -22 l26 -23 -22 25
c-24 28 -95 61 -73 34z"/>
<path d="M845 2089 c1 -11 12 -30 25 -42 l24 -22 -20 25 c-12 14 -20 30 -17
37 2 6 0 14 -5 17 -5 3 -8 -4 -7 -15z"/>
<path d="M2826 2093 c-6 -14 -5 -15 5 -6 7 7 10 15 7 18 -3 3 -9 -2 -12 -12z"/>
<path d="M3658 2083 c-2 -27 4 -82 16 -130 7 -31 44 -79 71 -91 32 -15 41 -49
20 -72 -10 -11 -19 -31 -21 -46 -1 -15 -7 -31 -12 -36 -6 -6 -7 -22 -2 -39 8
-25 5 -31 -26 -49 -19 -12 -34 -26 -34 -32 0 -5 14 2 31 16 17 14 35 26 40 26
4 0 8 17 8 38 0 61 6 88 28 115 16 21 23 24 34 14 7 -7 6 -3 -4 9 -9 11 -17
26 -17 32 0 6 -15 21 -32 34 -18 12 -41 32 -50 43 -19 23 -43 135 -35 165 3
11 1 20 -4 20 -5 0 -10 -8 -11 -17z"/>
<path d="M290 2056 c0 -2 7 -9 15 -16 9 -7 15 -8 15 -2 0 5 -7 12 -15 16 -8 3
-15 4 -15 2z"/>
<path d="M1435 2040 c-3 -6 1 -7 9 -4 18 7 21 14 7 14 -6 0 -13 -4 -16 -10z"/>
<path d="M330 2031 c0 -6 3 -12 8 -12 33 -6 51 -5 46 3 -3 4 -10 6 -15 2 -5
-3 -16 0 -24 6 -11 9 -15 9 -15 1z"/>
<path d="M4450 2020 c0 -5 5 -10 11 -10 5 0 7 5 4 10 -3 6 -8 10 -11 10 -2 0
-4 -4 -4 -10z"/>
<path d="M410 2003 c6 -13 20 -27 33 -33 20 -10 21 -10 4 4 -10 8 -25 23 -33
33 -14 17 -14 16 -4 -4z"/>
<path d="M4013 2009 c-13 -5 -23 -11 -23 -13 0 -3 10 -2 23 3 12 4 28 6 35 4
6 -3 12 -3 12 0 0 11 -26 14 -47 6z"/>
<path d="M3030 2002 c0 -5 7 -15 15 -22 8 -7 15 -8 15 -2 0 5 -7 15 -15 22 -8
7 -15 8 -15 2z"/>
<path d="M4070 2004 c0 -17 27 -37 42 -31 8 4 7 6 -4 6 -9 1 -22 9 -27 19 -6
9 -11 12 -11 6z"/>
<path d="M1390 1996 c0 -2 7 -9 15 -16 9 -7 15 -8 15 -2 0 5 -7 12 -15 16 -8
3 -15 4 -15 2z"/>
<path d="M4135 1980 c-3 -5 -1 -10 4 -10 6 0 11 5 11 10 0 6 -2 10 -4 10 -3 0
-8 -4 -11 -10z"/>
<path d="M4170 1979 c0 -5 5 -7 10 -4 6 3 10 8 10 11 0 2 -4 4 -10 4 -5 0 -10
-5 -10 -11z"/>
<path d="M480 1969 c-13 -9 -13 -10 1 -6 9 3 23 0 30 -6 11 -10 11 -9 0 6 -7
9 -14 17 -15 17 0 0 -8 -5 -16 -11z"/>
<path d="M4210 1970 c0 -5 5 -10 11 -10 5 0 7 5 4 10 -3 6 -8 10 -11 10 -2 0
-4 -4 -4 -10z"/>
<path d="M530 1960 c0 -5 5 -10 11 -10 5 0 7 5 4 10 -3 6 -8 10 -11 10 -2 0
-4 -4 -4 -10z"/>
<path d="M3070 1960 c0 -5 5 -10 11 -10 5 0 7 5 4 10 -3 6 -8 10 -11 10 -2 0
-4 -4 -4 -10z"/>
<path d="M4240 1936 c4 -4 16 -4 26 2 16 9 14 10 -8 9 -15 -1 -23 -6 -18 -11z"/>
<path d="M1622 1794 c-7 -8 -8 -14 -3 -14 10 0 25 19 20 25 -2 1 -10 -3 -17
-11z"/>
<path d="M1729 1763 c-13 -17 -13 -17 6 -3 11 8 22 16 24 17 2 2 0 3 -6 3 -6
0 -17 -8 -24 -17z"/>
<path d="M1600 1755 c-11 -13 -10 -14 4 -9 9 3 16 10 16 15 0 13 -6 11 -20 -6z"/>
<path d="M1681 1708 c-31 -34 -34 -52 -4 -26 10 9 25 13 33 10 12 -4 13 -2 3
10 -10 11 -10 17 -1 26 7 7 9 12 6 12 -4 0 -21 -14 -37 -32z"/>
<path d="M4267 1729 c7 -7 15 -10 18 -7 3 3 -2 9 -12 12 -14 6 -15 5 -6 -5z"/>
<path d="M4140 1619 c0 -5 5 -7 10 -4 6 3 10 8 10 11 0 2 -4 4 -10 4 -5 0 -10
-5 -10 -11z"/>
<path d="M4119 1572 c-24 -26 -29 -62 -8 -62 6 0 6 8 -1 20 -8 15 -6 21 9 29
10 6 21 17 25 26 7 20 5 19 -25 -13z"/>
<path d="M3655 1559 c-11 -17 1 -21 15 -4 8 9 8 15 2 15 -6 0 -14 -5 -17 -11z"/>
<path d="M3630 1510 c-9 -6 -10 -10 -3 -10 6 0 15 5 18 10 8 12 4 12 -15 0z"/>
<path d="M4110 1479 c-7 -12 -18 -18 -26 -15 -8 3 -14 1 -14 -4 0 -21 37 -9
48 15 14 30 7 33 -8 4z"/>
<path d="M4370 1492 c0 -5 10 -17 22 -28 l21 -19 -18 28 c-18 28 -25 33 -25
19z"/>
<path d="M4438 1469 c-10 -10 -14 -19 -9 -19 5 0 14 7 21 15 7 9 19 14 27 11
8 -3 11 -1 8 4 -9 15 -28 11 -47 -11z"/>
<path d="M4500 1472 c0 -12 19 -26 26 -19 2 2 -2 10 -11 17 -9 8 -15 8 -15 2z"/>
<path d="M4035 1420 c-3 -5 -1 -10 5 -10 6 0 8 -5 4 -12 -4 -7 -3 -8 4 -4 6 4
9 13 5 21 -6 18 -10 19 -18 5z"/>
<path d="M3810 1380 c0 -5 5 -10 11 -10 5 0 7 5 4 10 -3 6 -8 10 -11 10 -2 0
-4 -4 -4 -10z"/>
<path d="M4310 1280 c-9 -6 -10 -10 -3 -10 6 0 15 5 18 10 8 12 4 12 -15 0z"/>
<path d="M550 1270 c0 -5 7 -7 15 -4 8 4 15 8 15 10 0 2 -7 4 -15 4 -8 0 -15
-4 -15 -10z"/>
<path d="M517 1234 c-10 -14 -16 -32 -14 -42 4 -14 5 -14 6 2 0 11 8 28 18 38
9 10 14 20 12 22 -2 2 -12 -7 -22 -20z"/>
<path d="M698 1183 c6 -34 46 -78 83 -94 21 -8 27 -15 20 -22 -6 -6 -11 -15
-11 -20 0 -5 7 -2 15 7 21 21 20 23 -23 45 -40 20 -72 59 -72 85 0 8 -4 17 -9
20 -4 3 -6 -7 -3 -21z"/>
<path d="M485 1136 c-11 -7 -16 -20 -12 -29 3 -9 -1 -18 -10 -21 -9 -4 -13 -9
-10 -13 9 -9 38 18 31 29 -3 5 2 18 12 29 20 22 16 25 -11 5z"/>
<path d="M1140 1126 c0 -2 6 -9 14 -15 11 -9 16 -9 22 0 4 8 3 9 -4 5 -7 -4
-12 -2 -12 3 0 6 -4 11 -10 11 -5 0 -10 -2 -10 -4z"/>
<path d="M1205 1100 c27 -12 43 -12 25 0 -8 5 -22 9 -30 9 -10 0 -8 -3 5 -9z"/>
<path d="M1305 1067 c22 -19 42 -33 44 -31 6 6 -30 39 -60 54 -15 8 -9 -1 16
-23z"/>
<path d="M753 998 c-21 -18 -40 -34 -42 -35 -2 -2 -2 -5 1 -8 3 -3 18 7 34 23
16 16 38 34 49 40 11 6 15 12 8 12 -7 0 -29 -14 -50 -32z"/>
<path d="M1350 1012 c0 -4 9 -13 20 -20 11 -7 20 -9 20 -4 0 4 -9 13 -20 20
-11 7 -20 9 -20 4z"/>
<path d="M1400 986 c0 -2 11 -6 25 -8 14 -3 25 -1 25 3 0 5 -11 9 -25 9 -14 0
-25 -2 -25 -4z"/>
<path d="M1477 955 c10 -13 22 -25 27 -25 5 0 -1 11 -14 25 -30 32 -36 32 -13
0z"/>
<path d="M685 950 c-3 -5 -1 -10 4 -10 6 0 11 5 11 10 0 6 -2 10 -4 10 -3 0
-8 -4 -11 -10z"/>
<path d="M1558 897 l32 -33 -29 -31 c-25 -27 -26 -33 -15 -54 7 -13 10 -28 7
-33 -3 -5 -7 -27 -8 -49 -2 -30 0 -36 7 -23 5 9 7 24 4 33 -4 8 -2 21 4 28 7
9 7 20 -1 39 -10 22 -9 30 14 59 l25 33 -28 32 c-15 18 -31 32 -36 32 -4 0 6
-15 24 -33z"/>
<path d="M440 864 c-7 -8 -28 -14 -46 -14 -19 0 -34 -4 -34 -10 0 -13 67 -13
75 1 4 6 16 14 28 18 17 6 18 9 4 14 -8 3 -21 -1 -27 -9z"/>
<path d="M840 870 c-9 -6 -10 -10 -3 -10 6 0 15 5 18 10 8 12 4 12 -15 0z"/>
<path d="M490 859 c0 -5 12 -10 28 -10 52 -3 68 -6 104 -23 27 -13 48 -16 81
-11 40 6 46 5 52 -15 5 -17 12 -20 30 -16 18 5 24 1 29 -17 3 -12 19 -30 36
-39 16 -9 30 -23 30 -31 0 -8 9 -22 20 -32 18 -16 25 -17 73 -5 59 14 93 10
89 -9 -1 -7 2 -10 8 -6 15 10 -6 33 -33 37 -12 2 -41 -2 -63 -8 -35 -10 -45
-10 -63 2 -12 8 -21 22 -21 30 0 8 -13 23 -30 32 -16 9 -32 27 -35 39 -3 15
-13 23 -28 23 -12 0 -28 9 -34 19 -10 17 -17 18 -54 10 -35 -8 -51 -6 -90 11
-27 11 -52 20 -56 19 -4 -1 -10 -1 -13 1 -20 7 -60 7 -60 -1z"/>
<path d="M870 866 c0 -2 7 -7 16 -10 8 -3 12 -2 9 4 -6 10 -25 14 -25 6z"/>
<path d="M790 845 c-14 -8 -20 -14 -14 -15 5 0 19 7 30 15 24 18 16 19 -16 0z"/>
<path d="M924 845 c8 -8 18 -15 22 -15 3 0 1 7 -6 15 -7 8 -17 15 -22 15 -5 0
-3 -7 6 -15z"/>
<path d="M987 813 c-3 -5 10 -8 28 -8 38 -1 38 7 0 12 -13 2 -26 0 -28 -4z"/>
<path d="M1088 798 c8 -10 20 -14 29 -11 10 4 14 2 10 -4 -4 -6 0 -16 8 -23
18 -15 68 -22 59 -9 -3 5 -10 7 -15 4 -10 -7 -55 22 -52 33 2 4 -3 7 -10 7 -6
0 -19 5 -27 10 -13 7 -13 6 -2 -7z"/>
<path d="M1215 760 c-3 -5 -1 -10 4 -10 6 0 11 5 11 10 0 6 -2 10 -4 10 -3 0
-8 -4 -11 -10z"/>
<path d="M1065 620 c3 -5 8 -10 11 -10 2 0 4 5 4 10 0 6 -5 10 -11 10 -5 0 -7
-4 -4 -10z"/>
<path d="M1245 620 c-13 -5 -14 -9 -5 -9 8 0 24 4 35 9 13 5 14 9 5 9 -8 0
-24 -4 -35 -9z"/>
<path d="M1045 2610 c4 -7 -2 -18 -14 -26 -12 -8 -21 -19 -21 -24 0 -5 12 2
26 15 15 14 30 22 35 19 5 -3 9 -3 9 0 0 3 -10 10 -21 17 -16 8 -20 8 -14 -1z"/>
<path d="M1070 2571 c0 -6 4 -13 10 -16 6 -3 7 1 4 9 -7 18 -14 21 -14 7z"/>
<path d="M1230 2571 c0 -5 5 -13 10 -16 6 -3 10 -2 10 4 0 5 -4 13 -10 16 -5
3 -10 2 -10 -4z"/>
<path d="M1064 2543 c4 -8 2 -13 -6 -13 -8 0 -6 -5 5 -11 26 -15 34 -2 12 19
-10 9 -15 11 -11 5z"/>
<path d="M999 2523 c-13 -16 -12 -17 4 -4 9 7 17 15 17 17 0 8 -8 3 -21 -13z"/>
<path d="M932 2503 c40 -46 49 -151 16 -187 -10 -11 -18 -27 -18 -35 0 -20 13
-6 38 42 11 21 23 33 27 28 3 -6 11 -11 18 -11 6 0 3 6 -6 13 -10 6 -19 26
-21 42 -8 58 -32 111 -54 120 -14 5 -14 4 0 -12z"/>
<path d="M813 2462 c-18 -9 -33 -19 -33 -23 0 -5 15 1 34 12 22 13 37 16 41 9
3 -5 13 -10 21 -10 8 0 31 -17 51 -37 19 -21 32 -31 28 -23 -15 28 -60 69 -75
70 -9 0 -20 4 -25 9 -6 5 -23 2 -42 -7z"/>
<path d="M1120 2476 c0 -2 7 -9 15 -16 9 -7 15 -8 15 -2 0 5 -7 12 -15 16 -8
3 -15 4 -15 2z"/>
<path d="M750 2450 c-13 -8 -12 -10 3 -10 9 0 17 5 17 10 0 12 -1 12 -20 0z"/>
<path d="M685 2430 c-28 -7 -28 -8 -5 -9 14 0 32 4 40 9 17 11 8 11 -35 0z"/>
<path d="M706 2398 c3 -5 10 -6 15 -3 13 9 11 12 -6 12 -8 0 -12 -4 -9 -9z"/>
<path d="M740 2406 c0 -2 7 -7 16 -10 8 -3 12 -2 9 4 -6 10 -25 14 -25 6z"/>
<path d="M1275 2360 c3 -5 8 -10 11 -10 2 0 4 5 4 10 0 6 -5 10 -11 10 -5 0
-7 -4 -4 -10z"/>
<path d="M1018 2309 c12 -15 20 -33 17 -41 -4 -10 6 -22 29 -36 20 -12 36 -26
36 -31 0 -6 15 -18 33 -26 28 -14 30 -14 13 0 -11 8 -23 15 -26 15 -4 0 -13
11 -20 25 -8 14 -24 28 -37 31 -16 4 -22 12 -19 23 6 18 0 30 -29 51 -16 12
-16 10 3 -11z"/>
<path d="M1511 2637 c-6 -8 -9 -16 -6 -19 3 -3 -1 -11 -10 -18 -8 -7 -15 -17
-15 -22 0 -13 31 19 34 35 1 6 5 18 9 25 11 16 2 15 -12 -1z"/>
<path d="M1610 2461 c0 -6 4 -13 10 -16 6 -3 7 1 4 9 -7 18 -14 21 -14 7z"/>
<path d="M1660 2446 c0 -4 7 -14 15 -22 8 -9 15 -11 15 -6 0 5 -7 15 -15 22
-8 7 -15 9 -15 6z"/>
<path d="M1706 2412 c-3 -5 1 -9 9 -9 8 0 15 4 15 9 0 4 -4 8 -9 8 -6 0 -12
-4 -15 -8z"/>
<path d="M1650 2286 c0 -2 7 -7 16 -10 8 -3 12 -2 9 4 -6 10 -25 14 -25 6z"/>
<path d="M2650 2140 c0 -5 5 -10 11 -10 5 0 7 5 4 10 -3 6 -8 10 -11 10 -2 0
-4 -4 -4 -10z"/>
<path d="M2670 2116 c0 -2 7 -9 15 -16 13 -11 14 -10 9 4 -5 14 -24 23 -24 12z"/>
<path d="M2700 2075 c0 -5 8 -17 17 -27 9 -10 17 -36 17 -57 1 -22 4 -37 8
-35 14 9 -1 74 -22 101 -11 14 -20 22 -20 18z"/>
<path d="M2739 1926 c8 -9 24 -22 35 -28 19 -10 20 -10 7 6 -8 9 -24 22 -35
28 -19 10 -20 10 -7 -6z"/>
</g>
</svg>
